<svg width="110" height="54" viewBox="0 0 110 54" fill="none" xmlns="http://www.w3.org/2000/svg">
<path d="M2.212 24.096V5.84H4.396V8.052C4.80667 7.30533 5.432 6.708 6.272 6.26C7.112 5.79333 8.092 5.56 9.212 5.56C10.4253 5.56 11.508 5.84 12.46 6.4C13.412 6.96 14.1587 7.75333 14.7 8.78C15.2413 9.788 15.512 11.0013 15.512 12.42C15.512 13.82 15.2413 15.0333 14.7 16.06C14.1587 17.0867 13.412 17.88 12.46 18.44C11.508 19 10.4253 19.28 9.212 19.28C8.12933 19.28 7.17733 19.0653 6.356 18.636C5.53467 18.2067 4.90933 17.6373 4.48 16.928V24.096H2.212ZM8.792 17.292C9.65067 17.292 10.4067 17.096 11.06 16.704C11.732 16.312 12.2547 15.752 12.628 15.024C13.0013 14.296 13.188 13.428 13.188 12.42C13.188 11.412 13.0013 10.544 12.628 9.816C12.2547 9.088 11.732 8.528 11.06 8.136C10.4067 7.744 9.65067 7.548 8.792 7.548C7.93333 7.548 7.168 7.744 6.496 8.136C5.84267 8.528 5.32933 9.088 4.956 9.816C4.58267 10.544 4.396 11.412 4.396 12.42C4.396 13.428 4.58267 14.296 4.956 15.024C5.32933 15.752 5.84267 16.312 6.496 16.704C7.168 17.096 7.93333 17.292 8.792 17.292ZM25.2678 19.28C23.9425 19.28 22.7665 19 21.7398 18.44C20.7131 17.8613 19.9105 17.0587 19.3318 16.032C18.7531 15.0053 18.4638 13.8013 18.4638 12.42C18.4638 11.0387 18.7531 9.83467 19.3318 8.808C19.9105 7.78133 20.7131 6.988 21.7398 6.428C22.7665 5.84933 23.9425 5.56 25.2678 5.56C26.6118 5.56 27.7878 5.84933 28.7958 6.428C29.8225 6.988 30.6251 7.78133 31.2038 8.808C31.7825 9.83467 32.0718 11.0387 32.0718 12.42C32.0718 13.8013 31.7825 15.0053 31.2038 16.032C30.6251 17.0587 29.8225 17.8613 28.7958 18.44C27.7878 19 26.6118 19.28 25.2678 19.28ZM25.2678 17.292C26.1638 17.292 26.9478 17.096 27.6198 16.704C28.2918 16.312 28.8145 15.752 29.1878 15.024C29.5611 14.296 29.7478 13.428 29.7478 12.42C29.7478 11.412 29.5611 10.544 29.1878 9.816C28.8145 9.088 28.2918 8.528 27.6198 8.136C26.9478 7.744 26.1638 7.548 25.2678 7.548C24.3718 7.548 23.5878 7.744 22.9158 8.136C22.2438 8.528 21.7211 9.088 21.3478 9.816C20.9745 10.544 20.7878 11.412 20.7878 12.42C20.7878 13.428 20.9745 14.296 21.3478 15.024C21.7211 15.752 22.2438 16.312 22.9158 16.704C23.5878 17.096 24.3718 17.292 25.2678 17.292ZM35.7354 19V5.84H37.9194V8.248C38.2554 7.408 38.7501 6.77333 39.4034 6.344C40.0754 5.896 40.8314 5.672 41.6714 5.672C41.9328 5.672 42.1661 5.69067 42.3714 5.728C42.5954 5.74667 42.7728 5.784 42.9034 5.84V7.968C42.6608 7.912 42.4181 7.87467 42.1754 7.856C41.9328 7.81867 41.6901 7.8 41.4474 7.8C40.4581 7.8 39.6368 8.22933 38.9834 9.088C38.3301 9.928 38.0034 11.1133 38.0034 12.644V19H35.7354ZM51.364 19.168C50.0574 19.168 49.0774 18.86 48.424 18.244C47.7894 17.6093 47.472 16.6293 47.472 15.304V7.8H44.532V5.84H47.472V2.088H49.74V5.84H53.212V7.8H49.74V15.136C49.74 15.8267 49.908 16.3493 50.244 16.704C50.58 17.04 51.0934 17.208 51.784 17.208C52.008 17.208 52.26 17.1987 52.54 17.18C52.82 17.1613 53.044 17.1333 53.212 17.096V18.944C53.0067 19.0187 52.7267 19.0747 52.372 19.112C52.036 19.1493 51.7 19.168 51.364 19.168ZM57.9994 19V7.8H55.0594V5.84H57.9994V3.992C57.9994 2.66667 58.3167 1.696 58.9514 1.08C59.6047 0.445332 60.5847 0.127999 61.8914 0.127999C62.2274 0.127999 62.5634 0.146666 62.8994 0.183999C63.254 0.221333 63.534 0.277333 63.7394 0.352V2.2C63.5714 2.16267 63.3474 2.13467 63.0674 2.116C62.7874 2.09733 62.5354 2.088 62.3114 2.088C61.6207 2.088 61.1074 2.26533 60.7714 2.62C60.4354 2.956 60.2674 3.46933 60.2674 4.16V5.84H63.7394V7.8H60.2674V19H57.9994ZM72.7092 19.28C71.3839 19.28 70.2079 19 69.1812 18.44C68.1546 17.8613 67.3519 17.0587 66.7732 16.032C66.1946 15.0053 65.9052 13.8013 65.9052 12.42C65.9052 11.0387 66.1946 9.83467 66.7732 8.808C67.3519 7.78133 68.1546 6.988 69.1812 6.428C70.2079 5.84933 71.3839 5.56 72.7092 5.56C74.0532 5.56 75.2292 5.84933 76.2372 6.428C77.2639 6.988 78.0666 7.78133 78.6452 8.808C79.2239 9.83467 79.5132 11.0387 79.5132 12.42C79.5132 13.8013 79.2239 15.0053 78.6452 16.032C78.0666 17.0587 77.2639 17.8613 76.2372 18.44C75.2292 19 74.0532 19.28 72.7092 19.28ZM72.7092 17.292C73.6052 17.292 74.3892 17.096 75.0612 16.704C75.7332 16.312 76.2559 15.752 76.6292 15.024C77.0026 14.296 77.1892 13.428 77.1892 12.42C77.1892 11.412 77.0026 10.544 76.6292 9.816C76.2559 9.088 75.7332 8.528 75.0612 8.136C74.3892 7.744 73.6052 7.548 72.7092 7.548C71.8132 7.548 71.0292 7.744 70.3572 8.136C69.6852 8.528 69.1626 9.088 68.7892 9.816C68.4159 10.544 68.2292 11.412 68.2292 12.42C68.2292 13.428 68.4159 14.296 68.7892 15.024C69.1626 15.752 69.6852 16.312 70.3572 16.704C71.0292 17.096 71.8132 17.292 72.7092 17.292ZM83.1768 19V0.295999H85.4448V19H83.1768ZM89.8761 19V5.84H92.1441V19H89.8761ZM90.9961 2.928C90.5854 2.928 90.2494 2.80667 89.9881 2.564C89.7267 2.30267 89.5961 1.976 89.5961 1.584C89.5961 1.192 89.7267 0.874666 89.9881 0.631999C90.2494 0.389333 90.5854 0.267999 90.9961 0.267999C91.4254 0.267999 91.7707 0.389333 92.0321 0.631999C92.2934 0.874666 92.4241 1.192 92.4241 1.584C92.4241 1.976 92.2934 2.30267 92.0321 2.564C91.7707 2.80667 91.4254 2.928 90.9961 2.928ZM102.623 19.28C101.298 19.28 100.122 19 99.0953 18.44C98.0686 17.8613 97.2659 17.0587 96.6873 16.032C96.1086 15.0053 95.8193 13.8013 95.8193 12.42C95.8193 11.0387 96.1086 9.83467 96.6873 8.808C97.2659 7.78133 98.0686 6.988 99.0953 6.428C100.122 5.84933 101.298 5.56 102.623 5.56C103.967 5.56 105.143 5.84933 106.151 6.428C107.178 6.988 107.981 7.78133 108.559 8.808C109.138 9.83467 109.427 11.0387 109.427 12.42C109.427 13.8013 109.138 15.0053 108.559 16.032C107.981 17.0587 107.178 17.8613 106.151 18.44C105.143 19 103.967 19.28 102.623 19.28ZM102.623 17.292C103.519 17.292 104.303 17.096 104.975 16.704C105.647 16.312 106.17 15.752 106.543 15.024C106.917 14.296 107.103 13.428 107.103 12.42C107.103 11.412 106.917 10.544 106.543 9.816C106.17 9.088 105.647 8.528 104.975 8.136C104.303 7.744 103.519 7.548 102.623 7.548C101.727 7.548 100.943 7.744 100.271 8.136C99.5993 8.528 99.0766 9.088 98.7033 9.816C98.3299 10.544 98.1433 11.412 98.1433 12.42C98.1433 13.428 98.3299 14.296 98.7033 15.024C99.0766 15.752 99.5993 16.312 100.271 16.704C100.943 17.096 101.727 17.292 102.623 17.292ZM5.46 53L0.784 39.84H3.22L6.58 50.144L10.08 39.84H12.264L15.736 50.144L19.124 39.84H21.56L16.884 53H14.672L11.172 42.696L7.672 53H5.46ZM29.5628 53.28C28.2561 53.28 27.0801 53.0093 26.0348 52.468C24.9894 51.9267 24.1681 51.152 23.5708 50.144C22.9734 49.1173 22.6748 47.876 22.6748 46.42C22.6748 45.02 22.9641 43.8067 23.5428 42.78C24.1214 41.7533 24.9054 40.96 25.8948 40.4C26.8841 39.84 27.9854 39.56 29.1988 39.56C30.4868 39.56 31.5974 39.812 32.5308 40.316C33.4641 40.82 34.1828 41.5013 34.6868 42.36C35.1908 43.2 35.4428 44.1613 35.4428 45.244C35.4428 45.5427 35.3961 45.8787 35.3028 46.252C35.2281 46.6067 35.1254 46.896 34.9948 47.12H24.9988C25.0921 48.016 25.3348 48.7813 25.7268 49.416C26.1374 50.032 26.6881 50.4987 27.3788 50.816C28.0694 51.1333 28.8628 51.292 29.7588 51.292C30.6361 51.292 31.4014 51.1613 32.0548 50.9C32.7268 50.62 33.3708 50.228 33.9868 49.724L34.8828 51.432C34.1734 52.048 33.3708 52.5147 32.4748 52.832C31.5788 53.1307 30.6081 53.28 29.5628 53.28ZM24.9988 45.216H33.0908C33.1094 45.1787 33.1188 45.1413 33.1188 45.104C33.1188 45.0667 33.1188 45.0107 33.1188 44.936C33.1188 44.264 32.9788 43.676 32.6988 43.172C32.4188 42.6493 31.9894 42.248 31.4108 41.968C30.8508 41.688 30.1414 41.548 29.2828 41.548C28.6108 41.548 27.9761 41.6973 27.3788 41.996C26.7814 42.276 26.2774 42.6867 25.8668 43.228C25.4561 43.7693 25.1668 44.432 24.9988 45.216ZM46.0987 53.28C44.9787 53.28 43.9987 53.056 43.1587 52.608C42.3187 52.1413 41.6934 51.5347 41.2827 50.788V53H39.0987V34.296H41.3667V41.912C41.7961 41.2027 42.4214 40.6333 43.2427 40.204C44.0641 39.7747 45.0161 39.56 46.0987 39.56C47.3121 39.56 48.3947 39.84 49.3467 40.4C50.2987 40.96 51.0454 41.7533 51.5867 42.78C52.1281 43.788 52.3987 45.0013 52.3987 46.42C52.3987 47.82 52.1281 49.0333 51.5867 50.06C51.0454 51.0867 50.2987 51.88 49.3467 52.44C48.3947 53 47.3121 53.28 46.0987 53.28ZM45.6787 51.292C46.5374 51.292 47.2934 51.096 47.9467 50.704C48.6187 50.312 49.1414 49.752 49.5147 49.024C49.8881 48.296 50.0747 47.428 50.0747 46.42C50.0747 45.412 49.8881 44.544 49.5147 43.816C49.1414 43.088 48.6187 42.528 47.9467 42.136C47.2934 41.744 46.5374 41.548 45.6787 41.548C44.8201 41.548 44.0547 41.744 43.3827 42.136C42.7294 42.528 42.2161 43.088 41.8427 43.816C41.4694 44.544 41.2827 45.412 41.2827 46.42C41.2827 47.428 41.4694 48.296 41.8427 49.024C42.2161 49.752 42.7294 50.312 43.3827 50.704C44.0547 51.096 44.8201 51.292 45.6787 51.292ZM60.6705 53.28C59.6625 53.28 58.7292 53.1307 57.8705 52.832C57.0119 52.5147 56.1719 52.0573 55.3505 51.46L56.3865 49.612C57.1892 50.172 57.9265 50.592 58.5985 50.872C59.2892 51.152 59.9892 51.292 60.6985 51.292C61.7439 51.292 62.5279 51.1333 63.0505 50.816C63.5732 50.48 63.8345 49.9947 63.8345 49.36C63.8345 48.8373 63.6759 48.4547 63.3585 48.212C63.0599 47.9507 62.5185 47.7453 61.7345 47.596L59.3545 47.148C58.1599 46.924 57.2639 46.5227 56.6665 45.944C56.0692 45.3653 55.7705 44.6187 55.7705 43.704C55.7705 42.9573 55.9572 42.276 56.3305 41.66C56.7225 41.0253 57.2919 40.5213 58.0385 40.148C58.7852 39.756 59.7185 39.56 60.8385 39.56C61.7905 39.56 62.6772 39.7093 63.4985 40.008C64.3385 40.288 65.0852 40.6707 65.7385 41.156L64.7305 42.948C64.1705 42.5373 63.5732 42.2013 62.9385 41.94C62.3039 41.6787 61.6319 41.548 60.9225 41.548C60.0452 41.548 59.3545 41.7067 58.8505 42.024C58.3465 42.3227 58.0945 42.7987 58.0945 43.452C58.0945 43.8813 58.2439 44.2173 58.5425 44.46C58.8412 44.7027 59.3452 44.8893 60.0545 45.02L62.4345 45.468C63.6292 45.692 64.5439 46.084 65.1785 46.644C65.8319 47.204 66.1585 48.0347 66.1585 49.136C66.1585 50.3493 65.6919 51.348 64.7585 52.132C63.8252 52.8973 62.4625 53.28 60.6705 53.28ZM69.8331 53V39.84H72.1011V53H69.8331ZM70.9531 36.928C70.5424 36.928 70.2064 36.8067 69.9451 36.564C69.6838 36.3027 69.5531 35.976 69.5531 35.584C69.5531 35.192 69.6838 34.8747 69.9451 34.632C70.2064 34.3893 70.5424 34.268 70.9531 34.268C71.3824 34.268 71.7278 34.3893 71.9891 34.632C72.2504 34.8747 72.3811 35.192 72.3811 35.584C72.3811 35.976 72.2504 36.3027 71.9891 36.564C71.7278 36.8067 71.3824 36.928 70.9531 36.928ZM81.8523 53.168C80.5456 53.168 79.5656 52.86 78.9123 52.244C78.2776 51.6093 77.9603 50.6293 77.9603 49.304V41.8H75.0203V39.84H77.9603V36.088H80.2283V39.84H83.7003V41.8H80.2283V49.136C80.2283 49.8267 80.3963 50.3493 80.7323 50.704C81.0683 51.04 81.5816 51.208 82.2723 51.208C82.4963 51.208 82.7483 51.1987 83.0283 51.18C83.3083 51.1613 83.5323 51.1333 83.7003 51.096V52.944C83.495 53.0187 83.215 53.0747 82.8603 53.112C82.5243 53.1493 82.1883 53.168 81.8523 53.168ZM93.1917 53.28C91.885 53.28 90.709 53.0093 89.6637 52.468C88.6183 51.9267 87.797 51.152 87.1997 50.144C86.6023 49.1173 86.3037 47.876 86.3037 46.42C86.3037 45.02 86.593 43.8067 87.1717 42.78C87.7503 41.7533 88.5343 40.96 89.5237 40.4C90.513 39.84 91.6143 39.56 92.8277 39.56C94.1157 39.56 95.2263 39.812 96.1597 40.316C97.093 40.82 97.8117 41.5013 98.3157 42.36C98.8197 43.2 99.0717 44.1613 99.0717 45.244C99.0717 45.5427 99.025 45.8787 98.9317 46.252C98.857 46.6067 98.7543 46.896 98.6237 47.12H88.6277C88.721 48.016 88.9637 48.7813 89.3557 49.416C89.7663 50.032 90.317 50.4987 91.0077 50.816C91.6983 51.1333 92.4917 51.292 93.3877 51.292C94.265 51.292 95.0303 51.1613 95.6837 50.9C96.3557 50.62 96.9997 50.228 97.6157 49.724L98.5117 51.432C97.8023 52.048 96.9997 52.5147 96.1037 52.832C95.2077 53.1307 94.237 53.28 93.1917 53.28ZM88.6277 45.216H96.7197C96.7383 45.1787 96.7477 45.1413 96.7477 45.104C96.7477 45.0667 96.7477 45.0107 96.7477 44.936C96.7477 44.264 96.6077 43.676 96.3277 43.172C96.0477 42.6493 95.6183 42.248 95.0397 41.968C94.4797 41.688 93.7703 41.548 92.9117 41.548C92.2397 41.548 91.605 41.6973 91.0077 41.996C90.4103 42.276 89.9063 42.6867 89.4957 43.228C89.085 43.7693 88.7957 44.432 88.6277 45.216Z" fill="#4D4D4D"/>
</svg>
